# --------------------Vectorworks 2016 ------------------- #

mtllib cubycube.mtl

o Konstruktionsebene-1
v -813.604 -58.897 0
v -813.604 -58.897 670
v -813.604 611.381 670
v -813.604 611.381 0
v -500 -58.897 0
v -500 -58.897 670
v -143.326 611.381 670
v -143.326 611.381 0
v -500 500 670
v -143.326 500 670
v -143.326 500 0
v -500 -500 0
v -500 -500 675.716
v -500 -205.685 675.716
v -500 -205.685 1000
v -500 500 1000
v 500 500 1000
v -195.106 -205.685 1000
v -195.106 -500 1000
v 500 -500 1000
v 221.368 -500 0
v 221.368 -500 385
v -195.106 -500 675.716
v 500 -500 385
v 221.368 -605.896 0
v 221.368 -605.896 385
v 605.896 -605.896 0
v 605.896 -605.896 385
v 605.896 -221.368 385
v 500 -221.368 385
v 605.896 -221.368 0
v 500 -221.368 0
v 500 -133.183 670
v 500 -133.183 0
v 500 500 670
v 240.637 500 670
v 240.637 500 0
v 240.637 537.095 670
v 240.637 537.095 0
v 910.915 -133.183 0
v 910.915 537.095 0
v 910.915 537.095 670
v 910.915 -133.183 670
v -195.106 -590.213 1060.72
v -195.106 -590.213 675.716
v -195.106 -205.685 1060.72
v -579.634 -205.685 1060.72
v -579.634 -205.685 675.716
v -579.634 -590.213 675.716
v -579.634 -590.213 1060.72
vn -1 0 0
vn 0 -1 0
vn 0 1 0
vn 0 0 1
vn 1 0 0
vn 0 0 -1
vn 1 -0 -0
vn -0 1 -0
vn -0 -1 -0
vn -0 -0 -1
vn -1 -0 -0
vn -0 -0 1
usemtl Material_1
f 1//1 2//1 3//1
f 1//7 3//7 2//7
f 1//1 3//1 4//1
f 1//7 4//7 3//7
f 5//2 6//2 2//2
f 5//8 2//8 6//8
f 5//2 2//2 1//2
f 5//8 1//8 2//8
f 4//3 3//3 7//3
f 4//9 7//9 3//9
f 4//3 7//3 8//3
f 4//9 8//9 7//9
f 3//4 2//4 6//4
f 3//10 6//10 2//10
f 3//4 6//4 9//4
f 3//10 9//10 6//10
f 9//4 10//4 7//4
f 9//10 7//10 10//10
f 9//4 7//4 3//4
f 9//10 3//10 7//10
f 10//5 11//5 8//5
f 10//11 8//11 11//11
f 10//5 8//5 7//5
f 10//11 7//11 8//11
f 5//1 12//1 13//1
f 5//7 13//7 12//7
f 5//1 13//1 14//1
f 5//7 14//7 13//7
f 15//1 16//1 9//1
f 15//7 9//7 16//7
f 15//1 9//1 6//1
f 15//7 6//7 9//7
f 14//1 15//1 6//1
f 14//7 6//7 15//7
f 14//1 6//1 5//1
f 14//7 5//7 6//7
f 17//4 16//4 15//4
f 17//10 15//10 16//10
f 17//4 15//4 18//4
f 17//10 18//10 15//10
f 18//4 19//4 20//4
f 18//10 20//10 19//10
f 18//4 20//4 17//4
f 18//10 17//10 20//10
f 12//2 21//2 22//2
f 12//8 22//8 21//8
f 12//2 22//2 23//2
f 12//8 23//8 22//8
f 20//2 19//2 23//2
f 20//8 23//8 19//8
f 20//2 23//2 22//2
f 20//8 22//8 23//8
f 22//2 24//2 20//2
f 22//8 20//8 24//8
f 23//2 13//2 12//2
f 23//8 12//8 13//8
f 22//1 21//1 25//1
f 22//7 25//7 21//7
f 22//1 25//1 26//1
f 22//7 26//7 25//7
f 27//2 28//2 26//2
f 27//8 26//8 28//8
f 27//2 26//2 25//2
f 27//8 25//8 26//8
f 28//4 29//4 30//4
f 28//10 30//10 29//10
f 28//4 30//4 24//4
f 28//10 24//10 30//10
f 24//4 22//4 26//4
f 24//10 26//10 22//10
f 24//4 26//4 28//4
f 24//10 28//10 26//10
f 31//5 29//5 28//5
f 31//11 28//11 29//11
f 31//5 28//5 27//5
f 31//11 27//11 28//11
f 32//3 30//3 29//3
f 32//9 29//9 30//9
f 32//3 29//3 31//3
f 32//9 31//9 29//9
f 33//5 20//5 24//5
f 33//11 24//11 20//11
f 33//5 24//5 30//5
f 33//11 30//11 24//11
f 30//5 32//5 34//5
f 30//11 34//11 32//11
f 30//5 34//5 33//5
f 30//11 33//11 34//11
f 33//5 35//5 17//5
f 33//11 17//11 35//11
f 33//5 17//5 20//5
f 33//11 20//11 17//11
f 17//3 35//3 36//3
f 17//9 36//9 35//9
f 36//3 10//3 17//3
f 36//9 17//9 10//9
f 36//3 37//3 11//3
f 36//9 11//9 37//9
f 36//3 11//3 10//3
f 36//9 10//9 11//9
f 10//3 9//3 16//3
f 10//9 16//9 9//9
f 10//3 16//3 17//3
f 10//9 17//9 16//9
f 37//1 36//1 38//1
f 37//7 38//7 36//7
f 37//1 38//1 39//1
f 37//7 39//7 38//7
f 4//6 8//6 11//6
f 4//12 11//12 8//12
f 32//6 21//6 12//6
f 32//12 12//12 21//12
f 32//6 12//6 5//6
f 32//12 5//12 12//12
f 27//6 25//6 21//6
f 27//12 21//12 25//12
f 27//6 21//6 32//6
f 27//12 32//12 21//12
f 5//6 11//6 34//6
f 5//12 34//12 11//12
f 5//6 34//6 32//6
f 5//12 32//12 34//12
f 11//6 5//6 1//6
f 11//12 1//12 5//12
f 11//6 1//6 4//6
f 11//12 4//12 1//12
f 11//6 37//6 40//6
f 11//12 40//12 37//12
f 11//6 40//6 34//6
f 11//12 34//12 40//12
f 32//6 31//6 27//6
f 32//12 27//12 31//12
f 37//6 39//6 41//6
f 37//12 41//12 39//12
f 37//6 41//6 40//6
f 37//12 40//12 41//12
f 42//4 38//4 36//4
f 42//10 36//10 38//10
f 42//4 36//4 35//4
f 42//10 35//10 36//10
f 35//4 33//4 43//4
f 35//10 43//10 33//10
f 35//4 43//4 42//4
f 35//10 42//10 43//10
f 33//2 34//2 40//2
f 33//8 40//8 34//8
f 33//2 40//2 43//2
f 33//8 43//8 40//8
f 41//5 42//5 43//5
f 41//11 43//11 42//11
f 41//5 43//5 40//5
f 41//11 40//11 43//11
f 39//3 38//3 42//3
f 39//9 42//9 38//9
f 39//3 42//3 41//3
f 39//9 41//9 42//9
f 44//5 45//5 23//5
f 44//11 23//11 45//11
f 44//5 23//5 19//5
f 44//11 19//11 23//11
f 19//5 18//5 46//5
f 19//11 46//11 18//11
f 19//5 46//5 44//5
f 19//11 44//11 46//11
f 47//3 46//3 18//3
f 47//9 18//9 46//9
f 47//3 18//3 15//3
f 47//9 15//9 18//9
f 15//3 14//3 48//3
f 15//9 48//9 14//9
f 15//3 48//3 47//3
f 15//9 47//9 48//9
f 49//6 48//6 14//6
f 49//12 14//12 48//12
f 49//6 14//6 13//6
f 49//12 13//12 14//12
f 13//6 23//6 45//6
f 13//12 45//12 23//12
f 13//6 45//6 49//6
f 13//12 49//12 45//12
f 49//1 50//1 47//1
f 49//7 47//7 50//7
f 49//1 47//1 48//1
f 49//7 48//7 47//7
f 45//2 44//2 50//2
f 45//8 50//8 44//8
f 45//2 50//2 49//2
f 45//8 49//8 50//8
f 50//4 44//4 46//4
f 50//10 46//10 44//10
f 50//4 46//4 47//4
f 50//10 47//10 46//10
